<svg id="visual" viewBox="0 0 900 200" width="900" height="200" xmlns="http://www.w3.org/2000/svg" xmlns:xlink="http://www.w3.org/1999/xlink" version="1.1"><path d="M0 174L12.5 172.2C25 170.3 50 166.7 75 156.5C100 146.3 125 129.7 150 127.8C175 126 200 139 225 148.3C250 157.7 275 163.3 300 161.7C325 160 350 151 375 146.5C400 142 425 142 450 141.8C475 141.7 500 141.3 525 145.7C550 150 575 159 600 155.8C625 152.7 650 137.3 675 134.8C700 132.3 725 142.7 750 151.5C775 160.3 800 167.7 825 171.2C850 174.7 875 174.3 887.5 174.2L900 174L900 0L887.5 0C875 0 850 0 825 0C800 0 775 0 750 0C725 0 700 0 675 0C650 0 625 0 600 0C575 0 550 0 525 0C500 0 475 0 450 0C425 0 400 0 375 0C350 0 325 0 300 0C275 0 250 0 225 0C200 0 175 0 150 0C125 0 100 0 75 0C50 0 25 0 12.5 0L0 0Z" fill="#dd8bd3"></path><path d="M0 148L12.5 143.3C25 138.7 50 129.3 75 121C100 112.7 125 105.3 150 107C175 108.7 200 119.3 225 121.8C250 124.3 275 118.7 300 114.3C325 110 350 107 375 102.2C400 97.3 425 90.7 450 90.5C475 90.3 500 96.7 525 106.2C550 115.7 575 128.3 600 133.7C625 139 650 137 675 129.7C700 122.3 725 109.7 750 112.2C775 114.7 800 132.3 825 137.5C850 142.7 875 135.3 887.5 131.7L900 128L900 0L887.5 0C875 0 850 0 825 0C800 0 775 0 750 0C725 0 700 0 675 0C650 0 625 0 600 0C575 0 550 0 525 0C500 0 475 0 450 0C425 0 400 0 375 0C350 0 325 0 300 0C275 0 250 0 225 0C200 0 175 0 150 0C125 0 100 0 75 0C50 0 25 0 12.5 0L0 0Z" fill="#b3a5f1"></path><path d="M0 73L12.5 80C25 87 50 101 75 98.8C100 96.7 125 78.3 150 70C175 61.7 200 63.3 225 71.2C250 79 275 93 300 99.3C325 105.7 350 104.3 375 103C400 101.7 425 100.3 450 99.2C475 98 500 97 525 97.2C550 97.3 575 98.7 600 95.2C625 91.7 650 83.3 675 78.3C700 73.3 725 71.7 750 78C775 84.3 800 98.7 825 97.5C850 96.3 875 79.7 887.5 71.3L900 63L900 0L887.5 0C875 0 850 0 825 0C800 0 775 0 750 0C725 0 700 0 675 0C650 0 625 0 600 0C575 0 550 0 525 0C500 0 475 0 450 0C425 0 400 0 375 0C350 0 325 0 300 0C275 0 250 0 225 0C200 0 175 0 150 0C125 0 100 0 75 0C50 0 25 0 12.5 0L0 0Z" fill="#8bbaf8"></path><path d="M0 55L12.5 55.8C25 56.7 50 58.3 75 58.3C100 58.3 125 56.7 150 57.2C175 57.7 200 60.3 225 61.3C250 62.3 275 61.7 300 62.8C325 64 350 67 375 70.3C400 73.7 425 77.3 450 80.2C475 83 500 85 525 83.3C550 81.7 575 76.3 600 69.7C625 63 650 55 675 57.2C700 59.3 725 71.7 750 74.5C775 77.3 800 70.7 825 69.3C850 68 875 72 887.5 74L900 76L900 0L887.5 0C875 0 850 0 825 0C800 0 775 0 750 0C725 0 700 0 675 0C650 0 625 0 600 0C575 0 550 0 525 0C500 0 475 0 450 0C425 0 400 0 375 0C350 0 325 0 300 0C275 0 250 0 225 0C200 0 175 0 150 0C125 0 100 0 75 0C50 0 25 0 12.5 0L0 0Z" fill="#7bc9ee"></path><path d="M0 15L12.5 20.3C25 25.7 50 36.3 75 42.2C100 48 125 49 150 44.8C175 40.7 200 31.3 225 31.5C250 31.7 275 41.3 300 45C325 48.7 350 46.3 375 45.2C400 44 425 44 450 43.2C475 42.3 500 40.7 525 42.3C550 44 575 49 600 49.8C625 50.7 650 47.3 675 41.7C700 36 725 28 750 25.7C775 23.3 800 26.7 825 30C850 33.3 875 36.7 887.5 38.3L900 40L900 0L887.5 0C875 0 850 0 825 0C800 0 775 0 750 0C725 0 700 0 675 0C650 0 625 0 600 0C575 0 550 0 525 0C500 0 475 0 450 0C425 0 400 0 375 0C350 0 325 0 300 0C275 0 250 0 225 0C200 0 175 0 150 0C125 0 100 0 75 0C50 0 25 0 12.5 0L0 0Z" fill="#8bd3dd"></path></svg>